<?xml version="1.0" encoding="utf-8"?>
<!-- Generator: Adobe Illustrator 24.3.0, SVG Export Plug-In . SVG Version: 6.00 Build 0)  -->
<svg version="1.1" id="Слой_1" xmlns="http://www.w3.org/2000/svg" xmlns:xlink="http://www.w3.org/1999/xlink" x="0px" y="0px"
	 viewBox="0 0 1700.8 1700.8" style="enable-background:new 0 0 1700.8 1700.8;" xml:space="preserve">
<g>
	<path d="M720.2,1188.5c-69.8,41.7-143.2,78.6-221.6,103.2c-39.3,12-79.9,21-121.8,22.6c-20.9,0.8-42.2-0.5-63.1-5.1
		c-10.5-2.1-20.8-5.5-30.9-9.5c-10-4.3-19.7-9.3-28.8-15.6c-8.9-6.4-17.4-13.5-24.7-21.8c-7.3-8.2-13.6-17.3-18.8-26.9
		c-10.5-19.2-16.4-40.3-19.4-61.3c-5.7-42.2-0.4-84,8.7-124.1c9.4-40.1,23-78.8,39-116.3c16-37.5,34.4-73.9,54.4-109.3
		c40-70.8,86.1-137.7,136-201.6c49.9-63.8,103.7-124.5,160.5-182.1c56.9-57.6,116.7-112.2,179.7-163.2
		c62.9-50.9,128.9-98.1,198.3-139.9C1037.1,96.1,1110,59.3,1187.8,35c38.8-12,79-20.8,120.1-22.3c20.5-0.7,41.2,0.5,61.5,4.9
		c20.2,4.3,40,12.2,57.2,24.1c17.3,11.8,31.5,28.1,41.4,46.4c10.1,18.3,15.7,38.6,18.6,59c5.6,40.9,0.4,82.1-8.6,121.6
		c-9.3,39.6-22.8,78-38.6,115.2c-15.9,37.2-34.2,73.4-54,108.6c-39.8,70.4-85.7,137.1-135.4,200.7c-49.8,63.6-103.4,124.1-160,181.6
		c-56.7,57.4-116.4,111.9-179.1,162.6c-62.7,50.7-128.5,97.7-197.5,139.4c68.8-42.1,134.2-89.6,196.5-140.7
		c62.3-51.1,121.5-106,177.8-163.7c56.2-57.8,109.3-118.5,158.4-182.3c49.1-63.8,94.4-130.6,133.5-200.9
		c19.5-35.2,37.4-71.2,52.9-108.3c15.5-37,28.5-75.1,37.4-114.1c8.6-38.9,13.3-79.2,7.6-118.4c-2.9-19.5-8.4-38.6-18-55.6
		c-9.4-17-22.5-31.9-38.6-42.8c-16-10.9-34.5-18.2-53.7-22.1c-19.2-4.1-39-5.1-58.8-4.3c-39.6,1.7-78.9,10.6-116.9,22.6
		c-76.2,24.4-148.1,61.3-216.7,102.8C906.1,191,841,238.3,778.9,289.2c-62.1,51-121.2,105.6-177.2,163.2
		c-56,57.6-108.9,118.2-157.9,181.7c-48.9,63.6-94.1,130.1-133,200.1c-19.4,35-37.2,70.8-52.6,107.6c-15.3,36.8-28.3,74.5-37,113
		c-8.5,38.4-13,78-7.5,116c2.8,18.8,8.2,37.2,17.2,53.3c4.5,8.1,9.8,15.6,15.9,22.4c6.1,6.9,13.2,12.7,20.6,18
		c7.6,5.2,15.8,9.4,24.4,13c8.7,3.3,17.6,6.3,26.9,8c18.5,4,37.8,5,57.1,4.2c38.8-1.7,77.5-10.4,115.2-22.3
		c75.4-24.3,147-60.8,215.2-102.2L720.2,1188.5z"/>
	<path d="M1526.4,569.5c33.1,24.2,64.9,50.7,92.8,81.5c14,15.3,26.7,32.1,37.9,50c2.7,4.6,5.5,9,8,13.7l7.1,14.3l6,15
		c1.8,5.1,3.2,10.3,4.8,15.5c5.5,21,7.1,43.5,3.1,65.3c-3.8,21.8-13.2,42.5-25.9,60c-12.7,17.6-28.5,32.5-45.4,45
		c-17,12.6-35.1,23.1-53.8,32.1c-37.4,18-76.8,30.5-116.6,40c-39.8,9.4-80.1,15.9-120.6,20.3c-80.9,8.6-162.3,9.5-243.3,5.2
		c-81-4.3-161.6-13.8-241.3-27.6C759.4,986,680.4,968,602.6,945.5c-77.8-22.5-154.3-49.5-228.5-82
		c-74.1-32.7-146.2-70.7-212.2-118.3C129,721.4,97.6,695,70.1,664.7c-13.7-15.2-26.4-31.4-37.2-49C22.1,598.1,13.1,579.2,7.8,559
		c-5.3-20.2-6.9-41.7-3-62.4c3.8-20.7,12.5-40.4,24.8-57.3c12.2-16.9,27.4-31.3,43.9-43.6c16.5-12.3,34.3-22.5,52.7-31.4
		c36.8-17.7,75.8-30.1,115.2-39.5c39.5-9.4,79.5-15.8,119.8-20.1c80.5-8.6,161.6-9.4,242.2-5.2c161.3,8.8,321.3,37.2,476.4,81.8
		c9.7,2.7,19.3,5.7,29,8.7c9.6,3,19.3,5.8,28.9,9c19.1,6.4,38.4,12.5,57.3,19.5c38,13.4,75.5,28.4,112.5,44.6
		c37,16.1,73.2,33.9,108.6,53.3c35.3,19.4,69.8,40.5,102.5,64.1c-32.9-23.4-67.5-44.2-102.9-63.4c-35.5-19.2-71.8-36.7-108.8-52.5
		c-37-15.9-74.6-30.6-112.6-43.8c-18.9-6.9-38.2-12.8-57.3-19.1c-9.6-3.1-19.3-5.8-28.9-8.8c-9.7-2.9-19.3-5.9-29-8.4
		c-155.1-43.4-315-70.6-475.8-78.3c-80.4-3.7-161.1-2.3-240.9,6.8c-39.9,4.6-79.6,11.3-118.5,20.8c-38.9,9.6-77.1,22.1-112.9,39.6
		c-17.8,8.8-35,18.9-50.8,30.8c-15.8,11.9-30,25.6-41.3,41.5c-11.4,15.8-19.2,33.9-22.5,52.9c-3.4,19-1.9,38.7,3.2,57.4
		c5,18.8,13.7,36.6,24,53.3c10.5,16.7,22.8,32.3,36.2,46.9c26.9,29.3,57.8,54.9,90.3,78.1c65.3,46.3,136.8,83.5,210.4,115.3
		c73.7,31.7,149.8,57.9,227.1,79.7c77.3,21.8,155.8,39.1,235.1,52.3c79.2,13.1,159.1,22,239.2,25.7c80.1,3.7,160.5,2.3,239.9-6.8
		c39.7-4.6,79.1-11.2,117.7-20.6c38.5-9.5,76.4-21.9,111.6-39.1c17.5-8.6,34.4-18.5,49.7-30.1c15.3-11.5,29.1-24.9,39.9-40
		c10.8-15.1,18.3-32.2,21.3-50.1c3.2-17.9,1.8-36.5-3-54.4c-1.4-4.4-2.6-8.9-4.2-13.3l-5.3-13.1l-6.5-12.7
		c-2.2-4.2-4.9-8.2-7.3-12.4c-10.3-16.2-22.1-31.6-35.4-45.9c-26.4-28.8-57.1-54-89.2-77.2L1526.4,569.5z"/>
	<path d="M1689.9,1057.7c-10.4-8.1-22.5-15.7-35.2-16.2c-6.3-0.3-11.5-1.7-16.6-5.6c-9-6.9-19.3-7.7-22.1-17.6
		c-1.7-6.2-7.8-12.8-12.5-17.2c-11.2-10.6-17.8-13.2-32.6-9.3c-13.1,3.4-21.3,8.4-21.5,23.9c0,1.5-0.4,3-0.6,4.5
		c-0.3,3.8-2.2,11.8-6.1,12.1c-35.8,3.2-71.9,7.9-101,23.5c-14.9,8-30,27.3-35.7,33.5c-2.6,2.8-4.5,2.3-6.9-0.6
		c-8.5-10-27.2-20.2-35.9-30.1c-4.8-5.4-7.7-11.4-4.4-18.4c4.7-10.2,15-27.4,20.2-37.3c0.6-1.2,77.4-141.1,86.8-149.5
		c3.3-3,7.5-5.1,11.4-7.3c16.4-9.2,34.1-16.3,46.9-30.9c4.1-4.6,7.6-9.8,11-14.9c5.7-8.7,17.2-9.6,26.1-13.5
		c5.8-2.5,12.1-3.9,16.1-9.8c4.5-6.5,3.1-15.2-4.2-18.4c-4.2-1.8-9.1-3.1-13.5-2.8c-9.2,0.7-17.7-1.8-26.3-4.2
		c-14-3.8-26.4-1-38.3,7.2c-8.9,6.2-18.2,4.3-26.9-0.9c-13.3-7.9-27.8-8.4-42.1-5.2c-10.1,2.3-17,11.9-16.9,25.9
		c0.1,7.2,1.1,21.7-7.9,34.8c-8.3,12.2-55,51.2-57.5,52c-15.8,4.8-49.1,38.1-61.8,77.5c-1.4,4.5-3.5,8.7-5.7,12.8
		c-0.3,0.6-3.4,0.7-4.2,0c-2.2-2.1-3.9-4.6-5.6-7.1c-6.9-9.5-18-19.8-25.7-28.6c-11.7-13.5-56.9-61.8-131.4-33
		c-5.3,2.1-10,2.2-14.9-0.7c-4.5-2.7-27.2-12.9-32.3-15.1c-8.5-3.7-12.7-9.1-13.6-19.1c-1.4-17.1-8.8-64.6-30.9-86.2
		c-6.1-6-5.1-13.9-5.1-21.4c1.5-14-2.5-35.8-16.3-53.9c-10.8-14.1-17.9-29.7-17.1-48.3c1.9-47.9,3.1-95.8,4.8-143.6
		c1.3-35,0.1-69.8-3.7-104.6c-0.5-4.9-0.8-9.7-1.3-14.6c-0.4-4-2.6-27.3-2.4-32c0.5-11-1.6-21.4-7.8-30.8
		c-9.7-14.5-22.5-26.3-31.7-41.1c-27.9-44.6-106.8-101.3-164.1-139.7c-6.4-4.3-13.3-8.3-18.3-14c-19.1-21.8-25.1-33.4-36.8-60
		c-1.3-3.1-10.1-23.3-19.2-30c-9.8-7.2-22.8-17.1-33.9-21.6C659,8.1,653.1,6.1,647.3,4c-3.1-1.1-6.7-2-8.4,1.8
		c-1.6,3.5-1,7.1,2.2,10.1c3.1,2.9,5.8,6.1,9.6,10.3c-2.7,0.1-4,0.5-5.1,0.2c-4.7-1.3-9.3-3-14-4c-6.2-1.3-12.5-2.7-18.8-3.1
		c-5.3-0.4-8,2.6-8.7,7.8c-1.5,11.4,4.9,24.1,15,29.1c5.1,2.5,10.4,4.4,15.6,6.6c3.2,1.3,6.5,2.4,7.1,6.2c-4.2-0.1-8-0.3-11.8-0.3
		c-9.5,0.1-8.8,6.4-5.4,11.8c5.3,8.3,13.9,12.7,22.1,15.8c13.6,5.2,23.5,13.9,31.6,25.2c16.1,22.6,24.7,42,38.4,45.3
		c2.5,0.6,5.6,1.7,7.2,3.6c5.7,7.2,11.1,14.7,16.3,22.3c5.5,8.2,10.7,16.6,16.2,24.8c5.4,7.9,10.9,15.7,16.5,23.4
		c5.2,7.2,10.8,14.1,16,21.3c2.3,3.1,38,44.2,43.6,50.5c6.3,7.1,12.2,14.6,17,22.8c3,5.1,19.1,20.3,20.9,24.4
		c5.3,12.6,4.3,25.6,2.5,38.4c-3.3,22.6-7.3,45.2-11.5,67.7c-4.9,26.4-4.7,53-5.3,79.7c-0.2,8.4-6.9,28.9-7.9,52.4
		c-0.5,11.9,2,37.1,1.3,51.4c-0.2,3.2-10,7-10.2,6c-2.5-18.4-7.4-36.6-7-55.4c0.1-5.8,1.6-11.7,3.5-17.3c3.9-11.3,4.4-22.4,0-33.5
		c-0.5-1.2-0.9-2.7-0.7-3.9c1.8-10-3.6-18-7.4-26.2c-1.6-3.3-5.6-5.5-8.5-8.2c-1.6-1.5-3.6-3-4.3-5c-2.9-7.4-6.8-10.4-14.8-10.6
		c-5.5-0.1-10.3-1.3-14.2-6c-6.8-8.3-15.7-11.2-26.3-8c-1.5,0.5-3.3,0.2-5,0c-3.9-0.4-7.7-1-11.5-1.6c-8.9-1.2-17.4-0.9-24.5,5.9
		c-3.6,3.4-8.1,4.6-13,4.5c-4.5-0.2-7.3,1.9-9.5,6c-1.7,3.1-5.1,5.3-7.5,8.2c-2.1,2.5-3.8,5.3-5.7,8c-1.3,1.9-2.2,4.5-3.9,5.5
		c-8.8,4.7-11.4,12.8-12.2,21.9c-0.4,4.7-0.3,9.4-0.5,14.2c-0.3,0-0.5,0.1-0.8,0.1c1.3,11.7,2.4,23.4,3.9,35.1
		c1,7.6,4,13.9,11.6,17.6c7,3.4,10.7,9.6,13.2,17.1c2.7,8.2,6.3,16.3,10.5,23.9c2.3,4.2,6.4,7.7,10.2,10.9c6,5,9.5,11.1,11.1,18.4
		c0.3,1.4,0.9,3.6,1.5,4.9c3.6,8,3.7,8.1-2.9,13.6c-6.2,5.1-12.4,10.2-19,14.8c-1.7,1.2-5.2,1.1-7.2,0.2
		c-10.6-4.7-20.5-11.1-31.4-14.6c-16.9-5.4-34.4-7.9-52.4-7c-4.8,0.2-10.6,2.5-14.6,0c-34.7-21.3-84.3-40-131.9-42.6
		c-5.4-0.3-7.6-3.3-9.1-7.8c-1.4-4.1-2.8-8.3-4.8-12.1c-18.6-34.8-115.4-147.7-128.1-161.8c-1.6-1.7-3.5-3.2-5.4-4.4
		c-5.4-3.3-2.9-18.5-6-23.6c-3.5-5.8-20.5-49.7-46.8-57c-15.9-4.5,5.1,29.3-0.9,27.5c-24.5-7.7-55-17.8-59.7-22
		c-4.6-4.1-6.4-16.2-17.4-18c-1.8-0.3-27,17.8-25.3,26.3c0.6,3,5.5,18,7,20.6c7.7,12.7,27.6,23.9,38.2,31
		c13.4,9,29.8,20.6,36.6,24.2c4.9,2.6,9.8,5.2,14.9,7.1c16.3,6.3,24.9,18.7,29.8,35c5.8,19.2,57.9,151.3,77.5,176
		c6.6,8.3,10.1,18.2,16.8,26.4c8.2,9.9,18.5,13.2,30,18.1c11.1,4.7,21.6,13.2,32.2,19.2c14.7,8.4,28.9,17.9,43.8,25.9
		c19.2,10.4,38.9,20.2,60.4,24.9c5.9,1.3,12.1,1.5,18,2.7c15.9,3.2,31.9,5.8,47.4,10.3c16.6,4.9,32.4,12.6,46.2,23.3
		c14.4,11,74.5,72.3,99.8,87c8.2,4.7,7.4,4.1,15.1,9.7c12.3,9,32.6,24.8,44.2,34.7c21.4,18.3,80.3,42.4,84.6,42.7
		c0.9,0.1,2,0.9,2.6,1.8c0.2,0.3,18.9,14.4,20.8,15.7c7.8,5.3,15.2,11.1,22.5,16.9c10.9,8.7,23,14.2,37.1,15
		c1.6,0.1,3.5,0.3,4.8,1.2c8.9,5.9,46.6,35.9,71.7,46.2c52.5,21.6,105.8,31.6,128.1,30.3c12-0.7,14.1-0.6,26-1.5
		c5.2-0.4,9.2,0.6,12.9,3.9c2,1.8,59.4,48.8,142.1,64.9c4.6,0.9,9.5,2,13.4,4.3c11.3,6.9,22.8,6.1,34.5,2.5
		c12.2-3.8,21.4-15,30.9-22.9c7.7-6.5,71.4-58.7,116.3-92.5c7.6-5.7,16.7-9.3,26.2-10.1c1.6-0.1,3.2-0.3,4.9-0.3
		c11.7-0.3,23.5-1,35.2-2.1c3.9-0.4,7.6-2.4,11.5-3.7c8.5-2.8,16.6-1.6,25.3,2.6c8.4,4.1,20,0.6,23.8-6.3
		C1700.8,1072.1,1697.4,1063.6,1689.9,1057.7z"/>
	<circle cx="712.8" cy="1176.2" r="57.5"/>
	<circle cx="1515.3" cy="575.5" r="57.5"/>
	<path d="M528.6,264.7c-0.5-4.8-3.6-6.2-7.9-3.5c-2,1.3-4.2,2.5-6.5,3.4c-1,0.4-2,0.8-3,1.1c-3.7,1.1-6.6-3.3-3.9-6.2
		c2.6-2.8,5-5.6,7.3-8.5c17.1-22.2,20.1-50.6,8.5-74.4c-3.5-7.2-10.2-7.9-15.3-1.6c-8.3,10.2-19.1,17.4-31.8,21.5
		c-10.8,3.5-22.1,3.2-33.2,1.1c-17.1-3.3-34.2-4.4-51.4-1.3c-15.6,2.9-29.9,8.4-41.9,18.5c-6.1-2.7-13.1-5.5-18.2-6.5
		c-22.6-4.5-43.7,0-63.3,11.4c-5.2,3-8.1,3-13.5-0.7c-24.7-17.1-55.3-16.3-82.9-7.8c0,0-5.6,1.9-8.7,2.9
		c-34.3,11.2-63,66-63.2,103.1c-0.4,70.5,63.9,121.9,134.4,122.3c22.8,0.1,48.7-13.9,59.5-30.5c9.8-15.1,24.1,15.9,49.8-17.3
		c6.8,2,8.9-3.4,12.4-3.7c7.1-0.7,16.3-2,21.9-4c21.7-7.7,37.6-22.3,48.7-42.1c3-5.3,5.5-6.7,11.9-6.3c33.1,2.3,59.8-10.6,80-36.7
		C526.1,288.9,530.1,277.6,528.6,264.7z"/>
</g>
</svg>
